<svg id="レイヤー_1" data-name="レイヤー 1" xmlns="http://www.w3.org/2000/svg" viewBox="0 0 559.4 64.53"><defs><style>.cls-1{fill:#fff;}</style></defs><title>fflogo</title><path class="cls-1" d="M6.2,60.09H0V3.3H24.16V8.85H6.2V28.92H22.26v5.55H6.2Z"/><path class="cls-1" d="M37.66,3.3V60.09h-6.2V3.3Z"/><path class="cls-1" d="M53.83,10.16V60.09H48.06V3.3h8.61L76.09,51.92V3.3h5.84V60.09H74Z"/><path class="cls-1" d="M88.31,60.09,105,3.3h6.64l16.72,56.79h-6.79l-4.67-16.57H99.19l-4.6,16.57ZM100.5,38.41h15.11l-7.52-28Z"/><path class="cls-1" d="M141,3.3V54.54H160.6v5.55H134.76V3.3Z"/><path class="cls-1" d="M191.63,60.09h-6.2V3.3h24.16V8.85h-18V28.92h16.06v5.55H191.63Z"/><path class="cls-1" d="M209.24,60.09,225.89,3.3h6.64l16.72,56.79h-6.79l-4.67-16.57H220.12l-4.6,16.57Zm12.19-21.68h15.11l-7.52-28Z"/><path class="cls-1" d="M261.39,10.16V60.09h-5.77V3.3h8.61l19.42,48.62V3.3h5.84V60.09h-7.88Z"/><path class="cls-1" d="M315.48,60.09h-6.21V8.85H295.91V3.3h33V8.85H315.48Z"/><path class="cls-1" d="M325.43,60.09,342.07,3.3h6.64l16.72,56.79h-6.79L354,43.52H336.3l-4.6,16.57Zm12.19-21.68h15.11l-7.52-28Z"/><path class="cls-1" d="M395.63,10.45a24.2,24.2,0,0,0-9.42-2.34c-4.09,0-8.47,1.9-8.47,8.25,0,4.53,2.77,7.3,8.25,11.31,8,5.77,12.34,9.27,12.34,17.67,0,11.24-6.79,15.33-14.6,15.33A35.37,35.37,0,0,1,370,57.83L371.47,52a29.07,29.07,0,0,0,11.9,3.07c4.53,0,8.69-2.34,8.69-9.2,0-5.18-2.55-8-9.34-12.85-7.3-5.18-11.17-8.25-11.17-16.35,0-9.85,6.86-14.09,14.23-14.09a28.65,28.65,0,0,1,11.39,2.34Z"/><path class="cls-1" d="M418.66,35.35l-16.13-32h7.15l12.26,26.06,12-26.06h7L424.86,35.2V60.09h-6.2Z"/><path class="cls-1" d="M483.19,31.11l15.84,29h-7.52l-11.9-23.51-12,23.51h-7.23l15.91-28.91L461.07,3.3h7.23L480,26,491.29,3.3h7.23Z"/><path class="cls-1" d="M513,0V64.53h-5.91V0Z"/><path class="cls-1" d="M540.2,52.57,552.83,3.3h6.57L543.48,60.09h-6.72L520.64,3.3h6.72Z"/></svg>