<svg id="レイヤー_1" data-name="レイヤー 1" xmlns="http://www.w3.org/2000/svg" viewBox="0 0 897.6 213.54"><defs><style>.cls-1{fill:#fff;}</style></defs><title>logo</title><path class="cls-1" d="M227.87,103.84c31-15.93,47.78-41.63,56.47-68.42L310.41,39c-3.26,8.51-5.79,14.84-10,22.26h45.43l2,6,28.42-4.89c-3.8,36.74-17.19,67.88-42.9,94.12-23.89,24.25-54.66,32.94-85.25,38.19L238,172.07c55.39-7.6,92.13-27.69,109-88.33H286.34c-16.29,21-29,29.87-42.9,38Zm124.71-42.9c-4.71-17.74-5.43-20.27-8.33-27l15-2.9c1.81,3.62,4.89,10.32,9.23,26.79Zm23.89-4a153.58,153.58,0,0,0-8.69-25.88l15.2-2.9A175.71,175.71,0,0,1,392.4,53.7Z" transform="translate(-1.6 -2.6)"/><path class="cls-1" d="M441.29,142.75H416.13V42.84h25.16Zm89.59-31.68c0,23.35-1.27,46.16-27,64.8-14.3,10.32-30.77,15.39-69.68,19.73l-8.69-23.53c13.39-.9,43.8-2.71,61.18-13.76,18.82-11.76,18.82-32,18.82-48.33V39.58h25.34Z" transform="translate(-1.6 -2.6)"/><path class="cls-1" d="M545.37,174.06C574.51,140.94,581.75,85,583.19,45.92l24.25,2.17c-5.07,90.14-27,125.43-41.63,143.71ZM668.08,45c5.07,60.45,26.06,105,44.71,129.6l-21.9,17c-29-37.83-40.72-93.76-44.89-143.71Zm50.14,3.8a19.37,19.37,0,1,1-19.37-19.37A19.27,19.27,0,0,1,718.22,48.81Zm-27.69,0a8.42,8.42,0,0,0,16.83,0,8.42,8.42,0,0,0-16.83,0Z" transform="translate(-1.6 -2.6)"/><path class="cls-1" d="M780.65,178.59c8.33-.72,15.57-1.27,22.44-2V133.7H793.5v17c0,9.41-6.15,11.22-11.22,11.22h-6.52l-2.9-20.63c5.07,0,5.43.18,5.43-4.34V80.12h-8.14V201.39H753.32V80.12h-7.78v86H729.06V59.67h23.53V31.25h18.64V59.67H793.5v55.57h9.59V36.5H892V55H824.09v9.41h62.08v15.2H824.09V89.72h62.08V105.1H824.09v10.14h71.86V133.7H880.56L896.49,146c-3.08,3.44-8.14,9.41-23,19a99,99,0,0,0,25.7,16.83l-12.49,19.55c-26.25-12.31-48.69-39.82-54.12-67.69h-8.51v40.36c3.62-.36,21.36-2.9,25.34-3.62v20.09a647.57,647.57,0,0,1-65.88,9.41ZM852.5,133.7A53.69,53.69,0,0,0,861,151.44c11.95-8.14,16.11-13.76,19-17.74Z" transform="translate(-1.6 -2.6)"/><path class="cls-1" d="M161,75.12c-7.65-7.8-2.86-13.74.22-14.08,23.57-2.59,31.3-17.51,31.3-17.51s-13.63,2.77-13.61-4.69c0-7.1-2.39-33.88-37.34-36.18-22.74-1.5-41,22.55-41.79,34.4,0,0,20.82-1.37,23,9.74.62,3.2-17.54,10.4-5.59,30.8a32.65,32.65,0,0,0,9.52,10l-8.61,2.81,5.65,9.9-8.55,44.06.77.3-1,4.9a.88.88,0,0,0,1.54.59l2.58-4.27.77.3,23.27-38.38L154,104.27l-3.11-5.45c29.17,7.12,38.3-23.2,38.3-23.2C185.68,83.94,164.57,78.77,161,75.12ZM131,25.8a5.4,5.4,0,1,1,3.09,7A5.4,5.4,0,0,1,131,25.8Z" transform="translate(-1.6 -2.6)"/><path class="cls-1" d="M81.38,192.92h0a4.77,4.77,0,0,0-2.4.56c-1.1.64-.44,3.3.06,4.82A70.08,70.08,0,0,0,84,208.84c3.43,6.36,9.7,7.31,13.14,7.31a13.64,13.64,0,0,0,2.67-.24c.1-1.07-.79-5-6.1-13.9C89.66,195.31,84.69,192.92,81.38,192.92Z" transform="translate(-1.6 -2.6)"/><path class="cls-1" d="M177.69,146c-6.24-6-15.28-4.42-15.28-4.42s-8.86,18.28-14,22.83-19.67,14-33.18,17.91c-7.59,2.18-18.37,4.79-26.35,6.65,3.14,1.65,6.74,4.62,9.94,10,4.14,6.91,5.85,11.18,6.54,13.82A61.86,61.86,0,0,1,116.9,207c20.46-7.46,35.35-19.32,40.82-22.58S185,161.09,185,161.09C184.22,155.52,180.75,148.91,177.69,146Z" transform="translate(-1.6 -2.6)"/><path class="cls-1" d="M132.14,146.64a16.83,16.83,0,0,1-4.56-3.5l-3.42,5.64L122,152.36l-.77-.3-.41.69a5.65,5.65,0,0,1-4.88,2.73,6.07,6.07,0,0,1-4.65-2.18,5.65,5.65,0,0,1-1.2-4.69l.15-.79-.77-.3.8-4.11,4.85-25c-1.15-3.18-2.18-6.05-3.17-8.24-4.21-9.33-17.55-18-20.44-18.69s-10.22,2.8-17.23,5.34S36.58,111,26,113.35s-9.26,2.28-15.69,3.87-9.63,9.47-8.45,15c.83,3.89,2.31,9.4,8.18,9.32,10.38-.15,12.3-10.95,3.32-8.55,0,0,5.63,2.8,0,5-.75.29-7.29-2.15-3.75-6.13S16,130.28,19.69,131,32.2,137.46,36,149.36s13.84,34,20.89,39.32c3.7,2.81,11.91,9.3,18.87,14.83a39.23,39.23,0,0,1-1.43-3.67,13.36,13.36,0,0,1-.74-6.28c-.06-.71-.09-1.43-.1-2.15a4.74,4.74,0,0,1,1.06-3c.15-.22.2-.67.38-.85l.36-.22,1.45-.67a4.26,4.26,0,0,1,1.59-.37l9.46-2.21c7.75-1.81,18.56-4.42,26.11-6.59,12.72-3.65,26.63-12.78,31.25-16.85,1.82-1.61,4.83-6.37,7.69-11.47C145.5,149.17,136.3,148.74,132.14,146.64Z" transform="translate(-1.6 -2.6)"/></svg>