<?xml version="1.0" encoding="utf-8"?>
<!-- Generator: Adobe Illustrator 20.0.0, SVG Export Plug-In . SVG Version: 6.00 Build 0)  -->
<svg version="1.1" xmlns="http://www.w3.org/2000/svg" xmlns:xlink="http://www.w3.org/1999/xlink" x="0px" y="0px"
	 viewBox="0 0 130.5 33.6" style="enable-background:new 0 0 130.5 33.6;" xml:space="preserve">
<style type="text/css">
	.st0{display:none;}
	.st1{display:inline;fill:#000615;}
	.st2{display:inline;fill:#001DC2;}
	.st3{fill:#FFFFFF;}
	.st4{font-family:'02UtsukushiMincho';}
	.st5{font-size:21px;}
	.st6{letter-spacing:2;}
	.st7{font-size:9px;}
</style>
<g id="レイヤー_2" class="st0">
	<rect x="-35.2" y="-24.8" class="st1" width="194.7" height="82.5"/>
</g>
<g id="レイヤー_1">
	<g id="レイヤー_2_1_" class="st0">
		<rect x="-44.4" y="-34.9" class="st2" width="253" height="116"/>
	</g>
	<path class="st3" d="M29.8,19.2c-0.2,0.5-0.4,1.2-0.7,1.7c-0.4,0.9-1.7,1.3-2.5,0.8c-1-0.6-1-1.7-1.3-2.7c0-0.1,0-0.2,0.1-0.3
		c0.4-0.9,1-1.6,1.3-2.6c0.2-0.5,0.1-0.7-0.3-0.9c-0.6-0.3-0.6-0.5,0-0.9c0.5-0.4,0.5-0.7,0-1c-0.8-0.7-1.1-1.8-0.4-2.5
		c0.3-0.4,0.9-0.5,1.3-0.8c0.1-0.1,0.3-0.2,0.4-0.3c-0.1-0.1-0.2-0.3-0.3-0.4C27,9,27,8.7,27.5,8.4c0.3-0.2,0.7-0.4,1-0.5
		c0.4-0.3,0.8-1.1,0.6-1.8c-0.4,0.3-0.6,0.7-0.9,0.9c-0.4,0.2-0.8,0.2-1.1,0.3c-0.2,0.7-0.4,1.3-0.5,2.1c-0.3,0-0.9,0.2-1.1,0
		c-0.7-0.7-1.6-0.1-2.3-0.6c-0.2,1.1-0.9,1.5-1.4,1c-0.4-0.4-0.5-1-0.6-1.5c0-0.4,0-0.6-0.5-0.6c0.2,0.6-0.1,0.9-0.6,1.1
		c-0.4,0.1-0.7,0-1.1,0c-0.3,0-0.5-0.1-0.9-0.2c-0.5,0-0.9-0.4-0.9-0.9c0-0.3,0-0.6,0-0.9c0-0.9,0.7-1.7,1.6-1.7c1,0.1,2,0.2,3,0
		c0.2,0,0.4,0,0.6-0.1c0.3,0,0.6-0.1,0.9-0.2s0.7-0.2,0.9-0.4c0.6-0.7,1-1.4,1.5-2.1C26,1.4,26.1,0.7,25.6,0
		c-0.4,0.4-0.7,0.8-1.1,1.2s-0.9,0.6-1.3,0.4c-0.5-0.2-0.9,0-1.4,0.3c-0.8,0.6-1.7,1-2.7,0.2c-0.3,0.4-0.5,0.6-0.8,0.9
		c-1,1.5-2.1,1.9-3.8,1.4c-0.6-0.2-1.2,0.1-1.4,0.6c-0.3,0.6-0.5,1.3-0.9,1.9c-0.4,0.9-1.3,1.3-2.2,0.9C9.7,7.6,9.4,7.3,9.2,6.9
		c0-0.1,0.3-0.4,0.5-0.6C10,6.1,10.2,5.9,10,5.4c-0.1,0-0.2,0-0.3,0c-0.9,0-1-0.1-1.2-1c0-0.2-0.2-0.4-0.3-0.6
		C7.4,4.3,7.1,5.2,6.7,6C6.1,6.8,6.1,6.8,5.1,6.7C5,7.2,5.2,7.5,5.5,7.8s0.6,0.7,0.6,1c0,0.5,0,1,0.6,1.3C6,10.7,6,10.7,4.9,10.3
		c0,0.1-0.1,0.2-0.1,0.4c-0.6,1.2-1.5,1.5-2.7,0.9C1.7,11.4,1.3,11.2,1,11c0,0.6,0,1.1,0,1.7c0,0.4,0.1,0.5,0.5,0.4
		c0.5-0.1,0.9,0,1.1,0.4c0.2,0.4,0,0.9-0.4,1.2c-0.1,0.1-0.3,0.2-0.4,0.3c-0.2,0.2-0.4,0.4-0.4,0.6c0,0.2,0.3,0.4,0.4,0.5
		c0.4,0.2,0.6,0.5,0.6,1c0,0.3,0,0.5,0.1,0.8C3,19,3,19.9,2.4,20.8C1.8,21.6,1.2,22.3,0,22c0.1,1.1,1.3,2.5,2.3,2.8
		c0.3,0.1,0.7,0.3,0.9,0.5C3.9,26,3.8,27,3.8,27.9c0,0.6-0.6,0.7-1,0.9c0,0,0,0,0,0.2c0.8,0.1,1.5,0.2,2.2,0.3
		c1.7,0.2,3.1,0.8,3.8,2.5c0.3,0.8,0.5,0.9,1.3,0.5c0.9-0.5,1.8-0.8,2.8-0.1c0.1,0.1,0.4,0.1,0.5,0.2c0.8,0.2,1,0.1,1.4-0.5
		c0.5-0.9,1.3-1.3,2.3-0.9c0.4,0.2,0.9,0.5,1.2,0.9c0.6,0.7,1.3,0.9,2,0.9c0.2-0.6,0.3-1.2,0.6-1.6c0.4-0.5,0.9-0.9,1.3-1.3
		s1-0.7,1.7-0.7c0.6,0,0.7-0.2,0.6-0.8c0-0.1-0.1-0.3-0.1-0.4c-0.3-1.4,0.2-2.3,1.6-2.6c0.4-0.1,0.7-0.4,0.9-0.8
		c0.2-0.4,0.5-0.9,0.9-1.1c0.7-0.5,1.5-1,2.2-1.6c0.2-0.2,0.4-0.5,0.4-0.7C30.2,20.6,29.9,19.9,29.8,19.2z M14.2,29.5
		c-5.4,0-9.8-4.7-9.8-10.1c0-5,4.2-9.9,10.2-9.7c5.6,0.2,9.7,5.1,9.4,9.9C24.3,24.8,19.7,29.5,14.2,29.5z"/>
	<text transform="matrix(1 0 0 1 33.0932 20.2994)" class="st3 st4 st5 st6">グリパ帳</text>
	<text transform="matrix(1 0 0 1 35.81 31.4665)" class="st3 st4 st7">FinalFantasy x|v</text>
</g>
</svg>
